HIERARCHY
ROOT Hips
{
	OFFSET	0.000000	0.000000	0.000000
	CHANNELS 6 Xposition Yposition Zposition Zrotation Xrotation Yrotation
	JOINT LeftUpLeg
	{
		OFFSET	10.400868	-0.616521	2.124034
		CHANNELS 3 Zrotation Xrotation Yrotation
		JOINT LeftLeg
		{
			OFFSET	0.352537	-41.535095	-2.050072
			CHANNELS 3 Zrotation Xrotation Yrotation
			JOINT LeftFoot
			{
				OFFSET	-0.352537	-41.565321	-3.489960
				CHANNELS 3 Zrotation Xrotation Yrotation
				JOINT LeftFootHeel
				{
					OFFSET	0.523297	-9.012733	-4.729048
					CHANNELS 3 Zrotation Xrotation Yrotation
					End Site
					{
						OFFSET	-1.845620	-0.000002	17.812028
					}
				}
			}
		}
	}
	JOINT RightUpLeg
	{
		OFFSET	-10.400868	-0.616521	2.124034
		CHANNELS 3 Zrotation Xrotation Yrotation
		JOINT RightLeg
		{
			OFFSET	-0.352537	-41.535095	-2.050072
			CHANNELS 3 Zrotation Xrotation Yrotation
			JOINT RightFoot
			{
				OFFSET	0.352537	-41.565321	-3.489960
				CHANNELS 3 Zrotation Xrotation Yrotation
				JOINT RightFootHeel
				{
					OFFSET	-0.523297	-9.012733	-4.729048
					CHANNELS 3 Zrotation Xrotation Yrotation
					End Site
					{
						OFFSET	1.845620	-0.000002	17.812028
					}
				}
			}
		}
	}
	JOINT Spine
	{
		OFFSET	0.000000	14.066495	0.622008
		CHANNELS 3 Zrotation Xrotation Yrotation
		JOINT Spine1
		{
			OFFSET	0.000000	11.326443	0.000000
			CHANNELS 3 Zrotation Xrotation Yrotation
			JOINT LeftShoulder
			{
				OFFSET	5.573420	28.820108	1.551455
				CHANNELS 3 Zrotation Xrotation Yrotation
				JOINT LeftArm
				{
					OFFSET	11.077346	-0.652064	-0.274831
					CHANNELS 3 Zrotation Xrotation Yrotation
					JOINT LeftForeArm
					{
						OFFSET	3.317875	-35.016692	0.191745
						CHANNELS 3 Zrotation Xrotation Yrotation
						JOINT LeftHand
						{
							OFFSET	0.521886	-23.143868	7.546822
							CHANNELS 3 Zrotation Xrotation Yrotation
							End Site
							{
								OFFSET	-0.335938	-11.014202	2.865907
							}
						}
					}
				}
			}
			JOINT RightShoulder
			{
				OFFSET	-5.573420	28.820108	1.551455
				CHANNELS 3 Zrotation Xrotation Yrotation
				JOINT RightArm
				{
					OFFSET	-11.077346	-0.652064	-0.274831
					CHANNELS 3 Zrotation Xrotation Yrotation
					JOINT RightForeArm
					{
						OFFSET	-3.317875	-35.016692	0.191745
						CHANNELS 3 Zrotation Xrotation Yrotation
						JOINT RightHand
						{
							OFFSET	-0.521884	-23.143868	7.546822
							CHANNELS 3 Zrotation Xrotation Yrotation
							End Site
							{
								OFFSET	0.335938	-11.014202	2.865907
							}
						}
					}
				}
			}
			JOINT Neck
			{
				OFFSET	0.000000	31.425642	0.514363
				CHANNELS 3 Zrotation Xrotation Yrotation
				JOINT Head
				{
					OFFSET	0.000000	11.901169	2.272744
					CHANNELS 3 Zrotation Xrotation Yrotation
					End Site
					{
						OFFSET	0.000000	13.820749	0.378790
					}
				}
			}
		}
	}
}
MOTION
Frames:     13
Frame Time: 0.016667
0.000000	90.581320	0.000000	7.477176	-5.399508	42.035995	9.851929	1.296822	10.645472	-2.601613	31.553471	6.679809	-9.612033	-22.011160	0.487820	0.	0.	0.	-22.123842	-12.974909	-13.707063	11.972525	29.771904	-17.792860	1.227683	-5.529261	2.140212	0.	0.	0.	-0.000001	0.000001	0.000003	1.720011	17.704346	-3.741967	2.605799	2.243595	6.524623	25.903948	-2.123652	46.381508	4.094389	-119.211090	17.290718	-4.270757	-23.070629	12.623565	-1.086371	-1.038753	3.130725	-12.811444	-14.350270	-14.206624	2.217207	-41.986145	-8.900658	-2.287033	-13.083091	-17.475483	-3.336075	5.738813	6.060994	1.179028	-5.198889	-45.043091	
0.003104	90.582280	-0.015645	7.476086	-5.389833	42.068794	9.793620	1.280615	10.616489	-2.561726	31.537245	6.652026	-9.585400	-22.009089	0.524905	0.	0.	0.	-22.137220	-12.969842	-13.741391	11.952420	29.762953	-17.776611	1.240927	-5.515540	2.133597	0.	0.	0.	0.000001	0.000000	-0.000001	1.723827	17.704807	-3.767030	2.592093	2.246923	6.542298	25.936712	-2.136574	46.366158	4.054881	-119.228973	17.271179	-4.250674	-23.080473	12.635837	-1.081853	-1.038060	3.128488	-12.819503	-14.356774	-14.189299	2.195342	-41.987991	-8.936801	-2.285593	-13.113640	-17.445337	-3.339669	5.758986	6.074567	1.195483	-5.226918	-45.024284	
0.013819	90.586039	-0.044772	7.481394	-5.369224	42.106842	9.755367	1.261552	10.582302	-2.552429	31.552807	6.623075	-9.564714	-22.034046	0.558368	0.	0.	0.	-22.163986	-12.966571	-13.781628	11.910798	29.744410	-17.742989	1.268374	-5.487144	2.119950	0.	0.	0.	-0.000001	0.000000	0.000003	1.714136	17.705067	-3.780043	2.580342	2.247332	6.547025	25.969437	-2.166120	46.351761	4.028925	-119.259613	17.250832	-4.242770	-23.034788	12.649333	-1.070665	-1.028526	3.118785	-12.814062	-14.385922	-14.203133	2.128428	-42.004524	-8.979256	-2.225916	-13.105200	-17.411245	-3.330741	5.761502	6.069395	1.180103	-5.228236	-45.015728	
0.018639	90.580003	-0.083434	7.478440	-5.366389	42.127430	9.725476	1.252435	10.563596	-2.529226	31.562592	6.612741	-9.555476	-22.050564	0.570119	0.	0.	0.	-22.175081	-12.984755	-13.807875	11.874200	29.750666	-17.713745	1.293679	-5.461001	2.107389	0.	0.	0.	0.000001	-0.000001	-0.000002	1.720651	17.705801	-3.797286	2.571164	2.259176	6.569827	25.995213	-2.201632	46.353241	4.070814	-119.280159	17.293457	-4.228040	-23.036356	12.651666	-1.061889	-1.008863	3.131794	-12.798525	-14.424874	-14.215671	2.040042	-42.033390	-9.067265	-2.149002	-13.084501	-17.336349	-3.319311	5.785828	6.091227	1.146713	-5.246960	-45.009670	
0.040242	90.557572	-0.138831	7.477656	-5.365648	42.132881	9.692746	1.253476	10.579302	-2.504638	31.576046	6.593629	-9.540561	-22.074495	0.571613	0.	0.	0.	-22.237541	-13.019645	-13.828615	11.908420	29.790068	-17.707640	1.307029	-5.447212	2.100764	0.	0.	0.	-0.000000	0.000001	0.000002	1.721769	17.726820	-3.788893	2.596173	2.260065	6.566036	25.989141	-2.232424	46.373447	4.114871	-119.294662	17.340729	-4.239089	-23.031401	12.642456	-1.052169	-1.006750	3.134303	-12.797591	-14.453741	-14.232500	1.958002	-42.074886	-9.166895	-2.044551	-13.110886	-17.184124	-3.297764	5.790852	6.076401	1.105131	-5.258238	-44.970367	
0.060011	90.546633	-0.162277	7.474692	-5.362845	42.153458	9.650793	1.250387	10.588729	-2.447129	31.580957	6.530696	-9.530363	-22.095110	0.600438	0.	0.	0.	-22.280067	-13.020143	-13.850905	11.937083	29.802391	-17.742846	1.320060	-5.444128	2.130207	0.	0.	0.	0.000000	0.000000	-0.000001	1.728846	17.745358	-3.800531	2.624857	2.258667	6.561002	25.980261	-2.259806	46.397198	4.157009	-119.305153	17.387644	-4.271518	-23.029673	12.622049	-1.047312	-1.018565	3.131548	-12.773092	-14.481987	-14.232037	1.886621	-42.130589	-9.230188	-1.940104	-13.147285	-17.022797	-3.277503	5.794382	6.065299	1.078749	-5.250763	-44.925739	
0.105643	90.534317	-0.187825	7.484175	-5.368814	42.170261	9.601933	1.257414	10.579156	-2.378579	31.587961	6.447003	-9.522211	-22.118195	0.667972	0.	0.	0.	-22.348013	-12.989141	-13.858351	11.991283	29.799849	-17.797136	1.339690	-5.439298	2.173939	0.	0.	0.	0.000000	0.000001	0.000003	1.731417	17.780378	-3.807926	2.643262	2.247377	6.554917	25.987032	-2.281009	46.412979	4.186182	-119.313065	17.421700	-4.300111	-23.024994	12.603824	-1.046199	-1.043093	3.121338	-12.738678	-14.503169	-14.220159	1.788817	-42.160233	-9.279079	-1.873360	-13.151981	-17.001993	-3.270906	5.776409	6.054167	1.085685	-5.203836	-44.869823	
0.134609	90.527477	-0.190490	7.543736	-5.410885	42.188068	9.534789	1.308694	10.497770	-2.350008	31.601820	6.470270	-9.516685	-22.133047	0.709417	0.	0.	0.	-22.382236	-12.913524	-13.840980	11.996041	29.818317	-17.816273	1.365209	-5.452003	2.196892	0.	0.	0.	0.000000	0.000001	-0.000002	1.720758	17.876881	-3.813111	2.649614	2.238175	6.561457	26.014709	-2.314117	46.406113	4.186668	-119.311287	17.428476	-4.292028	-23.003473	12.607177	-1.045069	-1.068782	3.110843	-12.703167	-14.525001	-14.207893	1.735324	-42.157696	-9.305824	-1.737404	-13.201802	-17.007507	-3.262644	5.766891	6.056017	1.095761	-5.161827	-44.828976	
0.160362	90.522564	-0.206700	7.588686	-5.441514	42.201645	9.511110	1.354048	10.461336	-2.354520	31.613108	6.486528	-9.510553	-22.143887	0.716875	0.	0.	0.	-22.416054	-12.855474	-13.827818	11.999857	29.816736	-17.823488	1.385981	-5.445208	2.208319	0.	0.	0.	0.000000	0.000001	-0.000003	1.713926	17.951445	-3.825796	2.654558	2.237354	6.582329	26.039309	-2.352150	46.397476	4.185579	-119.306412	17.434425	-4.301429	-22.992626	12.600436	-1.045707	-1.091007	3.110981	-12.682972	-14.537411	-14.200912	1.719368	-42.162743	-9.348366	-1.579315	-13.239038	-17.009851	-3.256069	5.765650	6.074602	1.108873	-5.121857	-44.795704	
0.171390	90.519687	-0.215865	7.593679	-5.444914	42.203148	9.493202	1.355720	10.447103	-2.369665	31.650898	6.485074	-9.485157	-22.187696	0.740829	0.	0.	0.	-22.419193	-12.856552	-13.827993	11.978181	29.827536	-17.809408	1.405092	-5.442811	2.204686	0.	0.	0.	0.000000	-0.000001	-0.000001	1.715192	17.974342	-3.830950	2.661157	2.237812	6.605639	26.050447	-2.382661	46.387020	4.185110	-119.303734	17.438353	-4.317737	-22.990044	12.590078	-1.045132	-1.103509	3.117181	-12.685858	-14.541219	-14.205270	1.740622	-42.190880	-9.346087	-1.569614	-13.226125	-17.045086	-3.249877	5.769454	6.095602	1.104732	-5.096060	-44.759537	
0.173102	90.506277	-0.232733	7.598672	-5.448316	42.204659	9.476491	1.359009	10.439281	-2.388956	31.682318	6.503581	-9.462893	-22.223003	0.739976	0.	0.	0.	-22.432730	-12.887385	-13.837961	11.967064	29.883642	-17.800789	1.421607	-5.455049	2.203684	0.	0.	0.	-0.000001	-0.000000	0.000002	1.715572	17.990479	-3.834579	2.675100	2.235334	6.632217	26.034184	-2.398960	46.367439	4.185104	-119.303734	17.438364	-4.347580	-23.001385	12.558953	-1.033791	-1.097953	3.133571	-12.704727	-14.552910	-14.209387	1.740549	-42.205585	-9.352699	-1.572671	-13.224928	-17.041571	-3.242706	5.776932	6.108555	1.076340	-5.106216	-44.714649	
0.194725	90.490318	-0.239641	7.598672	-5.448316	42.204659	9.447863	1.357616	10.440438	-2.387341	31.703997	6.518230	-9.445141	-22.250374	0.733819	0.	0.	0.	-22.444372	-12.922713	-13.848104	11.933366	29.963385	-17.811747	1.467331	-5.484610	2.233377	0.	0.	0.	-0.000001	-0.000000	0.000002	1.715572	17.990479	-3.834579	2.695837	2.235752	6.647963	26.013100	-2.406497	46.383305	4.238861	-119.300278	17.479898	-4.371432	-23.011835	12.505138	-1.027811	-1.079569	3.146472	-12.721508	-14.566108	-14.169637	1.715373	-42.235733	-9.406670	-1.576662	-13.256544	-17.026936	-3.234004	5.789786	6.108769	1.082748	-5.149819	-44.633354	
0.204209	90.489485	-0.236192	7.636959	-5.474382	42.216244	9.405836	1.399058	10.426534	-2.377568	31.720552	6.529901	-9.430710	-22.272638	0.728851	0.	0.	0.	-22.456051	-12.873718	-13.852555	11.920991	29.972521	-17.797190	1.477724	-5.491571	2.239593	0.	0.	0.	-0.000002	-0.000000	0.000000	1.707870	18.035131	-3.844330	2.706797	2.233876	6.654950	26.002390	-2.411719	46.450100	4.316319	-119.300568	17.546972	-4.373202	-23.008825	12.495511	-1.024151	-1.068303	3.154375	-12.744555	-14.566894	-14.131459	1.700080	-42.248455	-9.411894	-1.602547	-13.292280	-17.075989	-3.232152	5.792520	6.108803	1.108466	-5.209703	-44.565166	
